<?xml version="1.0" encoding="utf-8"?>
<!-- Generator: Adobe Illustrator 23.0.1, SVG Export Plug-In . SVG Version: 6.00 Build 0)  -->
<svg version="1.1" id="Layer_1" xmlns="http://www.w3.org/2000/svg" xmlns:xlink="http://www.w3.org/1999/xlink" x="0px" y="0px"
	 viewBox="0 0 169 169" style="enable-background:new 0 0 169 169;" xml:space="preserve">
<style type="text/css">
	.st0{fill:#235B9E;}
	.st1{fill:#FFFFFF;}
	.st0:hover{fill: #999999;}
</style>
<g>
	<path class="st0" d="M169,126.75c0,23.33-18.92,42.25-42.26,42.25h-84.5C18.91,169,0,150.08,0,126.75v-84.5
		C0,18.91,18.91,0,42.24,0h84.5C150.08,0,169,18.91,169,42.25V126.75z"/>
	<g>
		<path class="st1" d="M70.42,137.31h21.13c0,0,0-29.16,0-52.81h15.68l1.93-21.13H92.36v-8.45c0-4.12,2.74-5.07,4.67-5.07
			c1.93,0,11.85,0,11.85,0v-18.1l-16.32-0.07c-18.11,0-22.23,13.5-22.23,22.14v9.55H59.85V84.5h10.56
			C70.42,108.44,70.42,137.31,70.42,137.31z"/>
	</g>
</g>
</svg>
