<?xml version="1.0" encoding="utf-8"?>
<!-- Generator: Adobe Illustrator 23.0.2, SVG Export Plug-In . SVG Version: 6.00 Build 0)  -->
<svg version="1.1" id="Layer_1" xmlns="http://www.w3.org/2000/svg" xmlns:xlink="http://www.w3.org/1999/xlink" x="0px" y="0px"
	 viewBox="0 0 2000 2000" style="enable-background:new 0 0 2000 2000;" xml:space="preserve">
<style type="text/css">
	.st0{fill:#FFFFFF;}
</style>
<g>
	<path class="st0" d="M1411.12,588.88c-53.38-53.38-115.56-95.3-184.8-124.59c-71.7-30.33-147.85-45.7-226.32-45.7
		c-78.47,0-154.62,15.38-226.32,45.7c-69.24,29.29-131.41,71.2-184.8,124.59c-53.38,53.38-95.3,115.56-124.59,184.8
		c-30.33,71.7-45.71,147.85-45.71,226.32s15.38,154.62,45.71,226.32c29.29,69.24,71.2,131.41,124.59,184.8
		c53.38,53.38,115.56,95.3,184.8,124.58c71.7,30.33,147.85,45.71,226.32,45.71c78.47,0,154.62-15.38,226.32-45.7
		c69.24-29.29,131.41-71.2,184.8-124.59c53.38-53.38,95.3-115.56,124.58-184.8c30.33-71.7,45.71-147.85,45.71-226.32
		c0-78.47-15.38-154.62-45.71-226.32C1506.42,704.44,1464.5,642.27,1411.12,588.88z M1468.46,1197.88
		c-25.6,60.54-62.27,114.91-108.97,161.61s-101.08,83.37-161.61,108.97c-62.66,26.5-129.23,39.94-197.88,39.94
		c-68.65,0-135.23-13.44-197.88-39.94c-60.54-25.6-114.91-62.27-161.61-108.97c-46.7-46.7-83.37-101.08-108.97-161.61
		c-26.5-62.65-39.94-129.23-39.94-197.88c0-68.65,13.44-135.23,39.94-197.88c25.61-60.54,62.27-114.91,108.97-161.61
		c46.7-46.7,101.08-83.37,161.61-108.97c62.65-26.5,129.23-39.94,197.88-39.94c68.65,0,135.23,13.44,197.88,39.94
		c60.53,25.6,114.91,62.27,161.61,108.97c46.7,46.7,83.37,101.08,108.97,161.61c26.5,62.65,39.94,129.23,39.94,197.88
		C1508.4,1068.65,1494.96,1135.23,1468.46,1197.88z"/>
	<path class="st0" d="M1302.57,963.5L1000,788.81l-129.24-74.62c-34.77-20.08-63.22-3.65-63.22,36.5v498.61
		c0,40.15,28.45,56.58,63.22,36.5l129.24-74.62l302.57-174.69C1337.34,1016.43,1337.34,983.57,1302.57,963.5z"/>
</g>
</svg>
