<?xml version="1.0" encoding="utf-8"?>
<!-- Generator: Adobe Illustrator 22.1.0, SVG Export Plug-In . SVG Version: 6.00 Build 0)  -->
<svg version="1.1" id="Layer_2" xmlns="http://www.w3.org/2000/svg" xmlns:xlink="http://www.w3.org/1999/xlink" x="0px" y="0px"
	 viewBox="0 0 40.6 27.8" style="enable-background:new 0 0 40.6 27.8;" xml:space="preserve">
<style type="text/css">
	.st0{fill:#FFFFFF;}
</style>
<path class="st0" d="M39,27.1c-1.7,1.1-4.1,0.8-5.4-0.8L20.3,9.5L7,26.3c-1.2,1.6-3.7,1.9-5.4,0.8c-1.7-1.1-2.1-3.3-0.9-4.9
	L17.2,1.5c0,0,0.1-0.1,0.1-0.1l0.1-0.1c0.1-0.1,0.2-0.2,0.3-0.3c0.1-0.1,0.2-0.2,0.4-0.3c0.1,0,0.2-0.1,0.2-0.1
	c0.5-0.3,0.9-0.4,1.5-0.5c0.1,0,0.2,0,0.2,0c0.2,0,0.5,0,0.7,0c0.1,0,0.2,0,0.2,0c0.5,0.1,1,0.2,1.4,0.5c0.1,0,0.2,0.1,0.3,0.2
	c0.1,0.1,0.3,0.2,0.4,0.3c0,0,0,0,0,0c0.1,0.1,0.2,0.2,0.3,0.3c0.1,0.1,0.1,0.1,0.2,0.2l16.5,20.8C41.1,23.8,40.8,26,39,27.1z"/>
</svg>
